<svg viewBox="0 0 41 41" fill="none" xmlns="http://www.w3.org/2000/svg">
    <path
        d="M4.73849 40.2409C3.60231 40.2409 2.62933 39.8489 1.81955 39.0649C1.00976 38.2809 0.60556 37.3395 0.606937 36.2409V4.24088C0.606937 3.14088 1.01183 2.19888 1.82161 1.41488C2.6314 0.630878 3.60369 0.239545 4.73849 0.240879H21.2647L33.6594 12.2409V20.2409H29.5278V14.2409H19.1989V4.24088H4.73849V36.2409H17.1332V40.2409H4.73849ZM30.1475 25.2909L32.3683 27.4409L24.3634 35.1409V37.2409H26.5324L34.5373 29.5409L36.7064 31.6409L27.8235 40.2409H21.2647V33.8909L30.1475 25.2909ZM36.7064 31.6409L30.1475 25.2909L33.1429 22.3909C33.5216 22.0242 34.0037 21.8409 34.589 21.8409C35.1743 21.8409 35.6563 22.0242 36.035 22.3909L39.7018 25.9409C40.0805 26.3075 40.2699 26.7742 40.2699 27.3409C40.2699 27.9075 40.0805 28.3742 39.7018 28.7409L36.7064 31.6409Z" />
</svg>