<svg viewBox="0 0 1440 1024" fill="none" xmlns="http://www.w3.org/2000/svg">
<g clip-path="url(#clip0_39_3)">
<path d="M1443.92 0H0V1024H1443.92V0Z" fill="#EAF6FF"/>
<path d="M0 515.793L40.1591 504.415C80.1677 493.037 160.486 470.281 240.654 461.748C320.821 453.215 401.139 458.904 481.307 463.644C561.475 468.385 641.793 472.178 721.961 502.519C802.128 532.859 882.446 589.748 962.614 622.554C1042.78 655.55 1123.1 664.273 1203.27 641.327C1283.44 618.193 1363.75 563.2 1403.76 535.704L1443.92 508.207V1025.9H1403.76C1363.75 1025.9 1283.44 1025.9 1203.27 1025.9C1123.1 1025.9 1042.78 1025.9 962.614 1025.9C882.446 1025.9 802.128 1025.9 721.961 1025.9C641.793 1025.9 561.475 1025.9 481.307 1025.9C401.139 1025.9 320.821 1025.9 240.654 1025.9C160.486 1025.9 80.1677 1025.9 40.1591 1025.9H0V515.793Z" fill="#7D80DA"/>
<path d="M0 585.956L40.1591 613.452C80.1677 640.948 160.486 695.941 240.654 711.111C320.821 726.282 401.139 701.63 481.307 691.769C561.475 682.098 641.793 687.028 721.961 665.031C802.128 642.844 882.446 593.541 962.614 574.957C1042.78 556.184 1123.1 568.32 1203.27 590.127C1283.44 611.935 1363.75 643.413 1403.76 659.342L1443.92 675.082V1025.9H1403.76C1363.75 1025.9 1283.44 1025.9 1203.27 1025.9C1123.1 1025.9 1042.78 1025.9 962.614 1025.9C882.446 1025.9 802.128 1025.9 721.961 1025.9C641.793 1025.9 561.475 1025.9 481.307 1025.9C401.139 1025.9 320.821 1025.9 240.654 1025.9C160.486 1025.9 80.1677 1025.9 40.1591 1025.9H0V585.956Z" fill="#6869BF"/>
<path d="M0 640.948L40.1591 657.636C80.1677 674.513 160.486 707.887 240.654 741.831C320.821 775.585 401.139 809.719 481.307 813.511C561.475 817.304 641.793 790.756 721.961 757.95C802.128 724.954 882.446 685.89 962.614 698.785C1042.78 711.68 1123.1 776.913 1203.27 800.616C1283.44 824.32 1363.75 806.495 1403.76 797.772L1443.92 788.859V1025.9H1403.76C1363.75 1025.9 1283.44 1025.9 1203.27 1025.9C1123.1 1025.9 1042.78 1025.9 962.614 1025.9C882.446 1025.9 802.128 1025.9 721.961 1025.9C641.793 1025.9 561.475 1025.9 481.307 1025.9C401.139 1025.9 320.821 1025.9 240.654 1025.9C160.486 1025.9 80.1677 1025.9 40.1591 1025.9H0V640.948Z" fill="#5353A5"/>
<path d="M0 898.844L40.1591 895.621C80.1677 892.587 160.486 886.139 240.654 885.001C320.821 883.674 401.139 887.467 481.307 874.761C561.475 862.246 641.793 833.043 721.961 833.801C802.128 834.37 882.446 864.711 962.614 871.727C1042.78 878.554 1123.1 862.246 1203.27 852.954C1283.44 843.852 1363.75 841.955 1403.76 841.007L1443.92 840.059V1025.9H1403.76C1363.75 1025.9 1283.44 1025.9 1203.27 1025.9C1123.1 1025.9 1042.78 1025.9 962.614 1025.9C882.446 1025.9 802.128 1025.9 721.961 1025.9C641.793 1025.9 561.475 1025.9 481.307 1025.9C401.139 1025.9 320.821 1025.9 240.654 1025.9C160.486 1025.9 80.1677 1025.9 40.1591 1025.9H0V898.844Z" fill="#3F3E8B"/>
<path d="M0 923.496L40.1591 925.393C80.1677 927.289 160.486 931.082 240.654 922.548C320.821 914.015 401.139 893.156 481.307 897.327C561.475 901.31 641.793 930.513 721.961 944.356C802.128 958.199 882.446 957.061 962.614 938.667C1042.78 920.273 1123.1 885.002 1203.27 868.883C1283.44 852.764 1363.75 855.799 1403.76 857.505L1443.92 859.022V1025.9H1403.76C1363.75 1025.9 1283.44 1025.9 1203.27 1025.9C1123.1 1025.9 1042.78 1025.9 962.614 1025.9C882.446 1025.9 802.128 1025.9 721.961 1025.9C641.793 1025.9 561.475 1025.9 481.307 1025.9C401.139 1025.9 320.821 1025.9 240.654 1025.9C160.486 1025.9 80.1677 1025.9 40.1591 1025.9H0V923.496Z" fill="#2A2A72"/>
</g>
<defs>
<clipPath id="clip0_39_3">
<rect width="1443.92" height="1024" fill="white"/>
</clipPath>
</defs>
</svg>
