<svg viewBox="0 0 256 256" fill="none" xmlns="http://www.w3.org/2000/svg">
<g clip-path="url(#clip0_46_4)">
<path d="M204.8 0H51.2C22.923 0 0 22.923 0 51.2V204.8C0 233.077 22.923 256 51.2 256H204.8C233.077 256 256 233.077 256 204.8V51.2C256 22.923 233.077 0 204.8 0Z" fill="#FFFDFA"/>
<path d="M62.2848 156.672L58.9824 145.664H34.3296C33.5104 148.378 32.6485 151.202 31.744 154.138C30.8224 157.073 30.0629 159.496 29.4656 161.408C28.7317 161.698 27.9467 161.954 27.1104 162.176C26.2741 162.398 25.2245 162.509 23.9616 162.509C21.4699 162.509 19.5328 162.014 18.1504 161.024C16.7509 160.034 16.0512 158.618 16.0512 156.774C16.0512 155.904 16.1792 155.042 16.4352 154.189C16.6912 153.352 16.9984 152.38 17.3568 151.27C17.9541 149.222 18.7477 146.748 19.7376 143.846C20.7275 140.945 21.7941 137.788 22.9376 134.374C24.064 130.961 25.2928 127.445 26.624 123.827C27.9381 120.192 29.2011 116.668 30.4128 113.254C31.6245 109.841 32.8021 106.65 33.9456 103.68C35.072 100.71 36.0448 98.1589 36.864 96.0256C37.8027 95.5136 39.2107 95.0016 41.088 94.4896C42.9653 93.9776 44.8597 93.7216 46.7712 93.7216C49.3312 93.7216 51.6779 94.1056 53.8112 94.8736C55.9275 95.6416 57.2843 96.8704 57.8816 98.56C59.3493 102.588 60.9621 107.23 62.72 112.486C64.4779 117.726 66.2613 123.136 68.0704 128.717C69.8624 134.298 71.6032 139.767 73.2928 145.126C74.9824 150.485 76.4843 155.29 77.7984 159.539C77.0645 160.341 76.0576 161.024 74.7776 161.587C73.4976 162.133 71.9701 162.406 70.1952 162.406C67.6352 162.406 65.8261 161.946 64.768 161.024C63.6928 160.102 62.8651 158.652 62.2848 156.672ZM47.2064 106.266H46.6432C45.9947 108.092 45.2779 110.148 44.4928 112.435C43.7248 114.705 42.9227 117.069 42.0864 119.526C41.2331 121.984 40.3712 124.476 39.5008 127.002C38.6133 129.544 37.7685 132.028 36.9664 134.451H56.1152L47.2064 106.266ZM139.443 103.168C139.443 104.636 139.042 105.907 138.24 106.982C137.438 108.041 136.516 108.86 135.475 109.44C133.581 108.194 131.456 107.059 129.101 106.035C126.746 105.011 123.844 104.499 120.397 104.499C114.167 104.499 109.201 106.513 105.498 110.541C101.777 114.586 99.9168 120.422 99.9168 128.051C99.9168 135.834 101.828 141.67 105.651 145.562C109.474 149.453 114.611 151.398 121.062 151.398C124.442 151.398 127.36 150.938 129.818 150.016C132.275 149.094 134.46 148.011 136.371 146.765C137.395 147.43 138.24 148.326 138.906 149.453C139.554 150.596 139.878 151.902 139.878 153.37C139.878 154.615 139.554 155.75 138.906 156.774C138.24 157.815 137.139 158.737 135.603 159.539C134.135 160.427 132.062 161.254 129.382 162.022C126.703 162.79 123.383 163.174 119.424 163.174C114.577 163.174 110.08 162.458 105.933 161.024C101.786 159.59 98.1675 157.423 95.0784 154.522C92.0064 151.62 89.5829 147.968 87.808 143.565C86.0501 139.162 85.1712 133.99 85.1712 128.051C85.1712 122.334 86.0501 117.291 87.808 112.922C89.5829 108.553 91.9893 104.883 95.0272 101.914C98.0821 98.944 101.641 96.6826 105.702 95.1296C109.781 93.5936 114.091 92.8256 118.63 92.8256C121.788 92.8256 124.655 93.0986 127.232 93.6448C129.792 94.208 131.994 94.9674 133.837 95.9232C135.663 96.8618 137.054 97.9626 138.01 99.2256C138.965 100.471 139.443 101.786 139.443 103.168ZM160.256 162.176C157.457 162.176 155.477 161.664 154.317 160.64C153.139 159.616 152.55 157.892 152.55 155.469V94.592C153.216 94.4384 154.172 94.2506 155.418 94.0288C156.663 93.824 157.909 93.7216 159.155 93.7216C161.801 93.7216 163.746 94.1909 164.992 95.1296C166.238 96.0853 166.861 97.8517 166.861 100.429V161.306C166.195 161.442 165.257 161.621 164.045 161.843C162.833 162.065 161.57 162.176 160.256 162.176ZM224.435 156.672L221.133 145.664H196.48C195.661 148.378 194.799 151.202 193.894 154.138C192.973 157.073 192.213 159.496 191.616 161.408C190.882 161.698 190.097 161.954 189.261 162.176C188.425 162.398 187.375 162.509 186.112 162.509C183.62 162.509 181.675 162.014 180.275 161.024C178.893 160.034 178.202 158.618 178.202 156.774C178.202 155.904 178.33 155.042 178.586 154.189C178.842 153.352 179.149 152.38 179.507 151.27C180.105 149.222 180.898 146.748 181.888 143.846C182.878 140.945 183.945 137.788 185.088 134.374C186.214 130.961 187.443 127.445 188.774 123.827C190.089 120.192 191.351 116.668 192.563 113.254C193.775 109.841 194.953 106.65 196.096 103.68C197.222 100.71 198.187 98.1589 198.989 96.0256C199.945 95.5136 201.361 95.0016 203.238 94.4896C205.116 93.9776 207.002 93.7216 208.896 93.7216C211.473 93.7216 213.828 94.1056 215.962 94.8736C218.078 95.6416 219.435 96.8704 220.032 98.56C221.5 102.588 223.113 107.23 224.87 112.486C226.628 117.726 228.412 123.136 230.221 128.717C232.013 134.298 233.754 139.767 235.443 145.126C237.133 150.485 238.635 155.29 239.949 159.539C239.215 160.341 238.208 161.024 236.928 161.587C235.648 162.133 234.121 162.406 232.346 162.406C229.786 162.406 227.977 161.946 226.918 161.024C225.843 160.102 225.015 158.652 224.435 156.672ZM209.357 106.266H208.794C208.128 108.092 207.411 110.148 206.643 112.435C205.875 114.705 205.073 117.069 204.237 119.526C203.383 121.984 202.522 124.476 201.651 127.002C200.764 129.544 199.919 132.028 199.117 134.451H218.266L209.357 106.266Z" fill="#2A2A72"/>
</g>
<defs>
<clipPath id="clip0_46_4">
<rect width="256" height="256" fill="white"/>
</clipPath>
</defs>
</svg>
